<svg xmlns="http://www.w3.org/2000/svg" viewBox="0 0 323.789 323.789" fill="#fff"><path d="M311.713 71.63L237.23 38.967c-10.206-4.477-22.093.16-26.568 10.37L197.973 78.27c-1.205 2.742-1.52 5.745-.908 8.712l2.184 10.432c.88 4.19 3.553 7.74 7.343 9.746l.63.333.458 6.886 2.806 7.19-.986 1.3c-15.802 20.915-25.35 47.275-32.507 71.47-.07.24-.118.505-.18.757h-10.183c.902-4.656 1.245-9.638.948-14.88-.744-13.113-5.2-26.748-12.254-37.41-8.98-13.59-22.707-22.928-37.268-25.77l-50.8-86.368c-12.103-16.314-35.44-20.16-52.2-7.735C-1.455 35.186-4.926 58.598 7.33 75.12l57.256 77.18c-3.015 13.88-.25 29.436 8.233 43.017-5.788 1.093-10.17 6.17-10.17 12.275 0 30.734 14.743 58.12 37.594 75.61h-2.528c-6.903 0-12.5 5.597-12.5 12.5s5.597 12.5 12.5 12.5h122.95c6.903 0 12.5-5.597 12.5-12.5s-5.597-12.5-12.5-12.5h-2.528c22.85-17.49 37.594-44.875 37.594-75.61 0-6.903-5.597-12.5-12.5-12.5h-33c1.41-18.92 4.334-37.97 11.25-55.66l50.74 22.25c10.187 4.467 22.103-.187 26.57-10.37L322.083 98.2c4.477-10.207-.16-22.094-10.37-26.57zM27.41 60.225a12.31 12.31 0 0 1 2.552-17.217 12.31 12.31 0 0 1 17.217 2.552c.622.838-3.14-5.51 56.382 96.2 1.683-.43 3.425-.638 5.2-.638 9.2 0 19.21 5.633 25.706 15.464 7.336 11.103 10.626 28.223 6.244 38.508h-34.575c-4.553-3.473-8.634-7.7-11.57-12.144-7.748-11.726-8.04-25.708-1.516-34.244l-65.64-88.48zm202.198 159.868c-6 32.957-35.292 58.043-70.416 58.043s-64.416-25.086-70.416-58.043h140.832zm48.23-83.245l-41.686-18.28-3.783-9.69-.598-8.98a14.26 14.26 0 0 0-7.617-11.733l-1.462-.772-.46-2.194 9.383-21.395 65.633 28.78-19.4 44.262z"/></svg>