<?xml version="1.0" standalone="no"?><!DOCTYPE svg PUBLIC "-//W3C//DTD SVG 1.1//EN" "http://www.w3.org/Graphics/SVG/1.1/DTD/svg11.dtd"><svg class="icon" height="512" viewBox="0 0 1449 1024" version="1.1" xmlns="http://www.w3.org/2000/svg"><path fill="#fff" d="M1187.533 239.468c-8.172-13.568-21.484-23.097-38.073-28.237-8.919-2.79-21.657-2.929-30.033 0.435-4.757 1.915-8.361 4.7-12.038 7.644a496.673 496.673 0 0 1-5.872 5.96 6984.682 6984.682 0 0 0-12.4 12.057c-43.316 42.548-86.621 85.105-129.987 127.642-10.138 10.004-20.296 19.968-30.413 29.937-5.371 5.324-14.27 13.306-23.542 14.351-0.466-1.06-1.198-1.894-1.515-3.205-1.516-6.605 6.01-12.61 8.627-15.872 11.965-13.03 23.9-26.076 35.835-39.091 33.9-37.161 67.82-74.322 101.724-111.463a18348.945 18348.945 0 0 1 28.708-31.554c3.502-4.373 7.987-7.962 11.008-12.82a36.66 36.66 0 0 0 4.29-10.24c4.403-17.27-5.16-32.113-12.288-40.981-3.604-4.455-8.694-8.1-13.742-11.06-3.082-1.791-6.722-3.138-10.486-4.162-8.192-2.284-18.974-1.1-25.666 1.582-6.846 2.734-11.428 7.091-16.671 11.325-1.864 1.828-3.676 3.677-5.54 5.52-4.864 4.761-9.759 9.513-14.597 14.254-42.562 41.78-85.125 83.574-127.667 125.348a20358.673 20358.673 0 0 1-21.29 20.94c-2.037 2.074-4.075 4.148-6.169 6.257-2.698 2.176-5.12 4.496-8.079 6.513-3.907 2.611-10.312 7.49-16.394 7.455-1.9-6.216 3.635-14.664 6.026-18.52 1.203-1.756 2.355-3.517 3.502-5.242a1565.03 1565.03 0 0 1 10.767-10.87c7.783-7.998 15.575-15.975 23.383-23.972 20.153-20.787 40.295-41.585 60.468-62.372 10.977-11.32 21.934-22.697 32.89-34.038 3.677-3.763 7.373-7.546 11.065-11.31 3.277-3.445 6.569-6.896 9.861-10.342 2.406-2.478 4.772-4.987 7.142-7.475 2.125-2.253 4.286-4.516 6.395-6.78 6.2-7.68 14.08-13.987 20.07-21.913 7.194-9.549 8.326-24.919 3.098-37.58-7.055-17.076-22.333-33.07-46.76-32.615a102.4 102.4 0 0 0-2.402 0.174c-1.705 0.277-3.38 0.538-5.09 0.799-4.874 1.218-9.471 2.806-13.362 5.069-9.196 5.386-16.395 12.646-24.51 19.077-12.8 10.122-24.182 21.934-36.88 32.143-4.146 3.835-8.38 7.67-12.543 11.5-8.346 7.598-16.656 15.155-24.95 22.717l-7.834 7.322c-3.435 3.271-6.922 6.528-10.393 9.79-4.316 4.177-8.638 8.324-12.954 12.492-4.639 4.454-9.308 8.899-13.977 13.363-1.46 1.475-2.909 2.975-4.388 4.455a1383.662 1383.662 0 0 0-8.259 8.192c-2.14 1.705-3.865 3.86-5.8 5.78a1430.362 1430.362 0 0 1-6.78 6.86c-1.29 1.26-2.544 2.494-3.835 3.733-6.272 6.585-12.544 13.19-18.78 19.753-2.457 2.683-4.874 5.371-7.311 8.034-6.206 7.7-13.19 14.72-19.164 22.65-3.676 4.86-7.404 9.79-10.716 15.053-4.199 6.825-7.895 14.664-11.203 22.19-4.111 9.303-8.673 18.156-11.479 29.133-0.973 3.743-1.044 7.731-1.725 11.93v6.041c0.071 1.66 0.122 3.349 0.194 5.003 0.379 3 0.835 5.99 1.25 8.99 0.906 4.46 1.448 8.658 2.964 12.493 5.611 14.551 13.762 24.371 22.666 35.436 3.241 3.363 6.503 6.707 9.703 10.07a188.712 188.712 0 0 1 3.415 3.313c-7.732 7.906-15.401 15.872-23.102 23.757-1.096 1.1-2.16 2.145-3.307 3.226-101.448-100.434-202.962-200.96-304.41-301.41-14.735-14.725-29.41-29.562-46.602-41.866-9.529-6.81-19.39-13.291-30.992-18.084-8.658-3.553-22.666-7.403-35.036-4.736-7.997 1.756-14.27 4.562-19.753 8.745-6.707 5.07-11.607 12.037-15.595 19.876-4.163 8.192-6.462 17.423-8.55 27.966-0.282 2.857-0.595 5.713-0.892 8.55a372.47 372.47 0 0 1-0.087 4.198c-0.993 5.837-0.993 12.217-1.97 18.35l-0.415 8.899c-0.144 3.59-0.246 7.199-0.37 10.803v11.914c0.175 5.003 0.37 9.984 0.523 14.966 0.312 3.502 0.594 7.004 0.891 10.506 1.254 7.332 1.72 14.705 3.328 21.484 1.879 8.115 3.343 15.923 6.323 22.82 5.468 12.61 13.066 23.623 20.557 34.283 11.11 15.734 23.188 30.244 35.036 45.174l16.22 18.8c8.013 10.036 17.49 18.801 25.554 28.78 2.929 3.19 5.873 6.344 8.837 9.529 4.301 4.48 8.602 8.975 12.923 13.465a597.762 597.762 0 0 0 4.726 4.885c3.83 4.736 8.622 8.883 12.928 13.189 5.084 5.048 9.892 10.782 15.503 15.293 4.511 4.373 9.027 8.745 13.538 13.102 3.379 3.134 6.758 6.236 10.137 9.34 8.889 7.126 16.973 15.103 26.112 22 8.208 6.205 16.348 12.615 26.64 16.676 6.88 2.698 15.298 2.98 23.52 4.372 2.648 0.205 5.295 0.4 7.927 0.625 3.85 0.102 7.68 0.23 11.586 0.368h16.461c4.337-0.225 8.643-0.42 13-0.63 1.495-0.066 3.03-0.122 4.526-0.173 5.017-0.42 10.055-0.855 15.053-1.255 1.914-0.174 3.814-0.368 5.713-0.522 7.266 7.782 14.546 15.54 21.832 23.342-64.932 60.006-129.843 120.033-194.76 180.055a387200.219 387200.219 0 0 1-93.204 86.687 12285.952 12285.952 0 0 1-25.856 24.32c-1.25 1.31-2.59 2.616-3.881 3.922-12.006 9.671-19.077 24.268-23.434 41.605-6.2 24.683-0.681 52.577 9.354 68.608 2.355 3.845 5.171 8.1 8.643 10.87 2.191 1.792 4.213 3.778 6.584 5.452 9.687 6.81 21.34 11.597 34.478 14.946 3.517 0.906 7.004 1.239 10.783 1.95 6.635 1.275 18.606 2.11 26.096 0.891 4.88-0.788 9.6-1.08 14.06-2.232 12.943-3.277 22.784-8.586 31.708-15.75 2.908-2.334 5.786-5.467 8.1-8.396 3.343-3.466 6.62-6.932 9.912-10.42 7.68-8.099 15.38-16.199 23.102-24.32 19.215-20.274 38.466-40.54 57.702-60.85 45.66-48.016 91.305-96.103 136.95-144.164 23.117-24.305 46.218-48.676 69.32-73.032 67.701 75.505 135.418 151.04 203.135 226.55 17.89 20.086 35.82 40.171 53.725 60.242 6.24 7.04 12.477 14.06 18.713 21.115 2.197 2.544 4.409 5.033 6.605 7.577 1.393 1.813 2.944 3.835 4.736 5.258 9.2 7.424 18.278 11.986 31.795 15.299 4.475 1.132 9.027 1.08 14.09 1.884 6.17 0.993 15.207 0.328 20.736-0.717 3.779-0.716 7.21-1.008 10.676-1.95 11.397-3.139 21.135-7.49 29.583-13.466 4.024-2.826 8.448-5.924 11.5-9.707 2.252-2.765 4.72-5.325 6.778-8.29 3.764-5.35 6.513-11.392 9.094-17.981 1.843-4.823 2.544-10.21 3.568-15.8 1.726-9.513 0.471-22.697-1.515-30.838-4.547-18.396-11.275-32.753-23.885-42.926-3.103-2.996-6.17-6.011-9.288-9.006-6.026-5.94-12.103-11.863-18.166-17.818-93.45-90.7-186.915-181.412-280.386-272.092 10.056-11.694 20.157-23.399 30.172-35.123 1.014-0.697 4.726 2.457 6.083 3.4a281.405 281.405 0 0 0 18.36 11.74c12.319 7.321 25.871 12.63 41.257 16.936 6.461 1.813 15.61 3.467 23.516 1.705 4.762-1.075 9.2-2.16 13.348-3.834 23.117-9.232 40.806-24.546 58.88-38.846a8609.63 8609.63 0 0 1 13.384-11.586 7342.114 7342.114 0 0 0 16.128-14.966c2.544-2.442 5.089-4.864 7.67-7.301 6.092-4.895 11.862-11.602 17.459-17.193 4.352-4.357 9.246-8.556 13.076-13.384 1.623-1.654 3.226-3.343 4.828-4.966 2.995-3.15 5.99-6.303 8.99-9.437 6.831-7.25 13.64-14.515 20.435-21.744l13.276-14.618c3.732-4.162 7.49-8.381 11.203-12.58 9.999-12.492 21.504-23.726 31.482-36.25 2.263-2.6 4.547-5.232 6.846-7.828a29791.13 29791.13 0 0 0 24.965-29.84c4.46-5.698 11.443-11.918 14.408-18.713 4.956-11.197 2.672-23.69-2.724-32.716z m-51.328 37.841c-9.861 11.572-19.671 23.117-29.491 34.668-9.636 10.977-19.236 21.934-28.887 32.875-3.451 3.85-6.933 7.737-10.42 11.587-4.096 4.51-8.258 9.027-12.37 13.537-6.113 6.462-12.195 12.872-18.242 19.318-2.663 2.77-5.294 5.51-7.941 8.28-1.9 2.001-3.866 3.988-5.801 5.974-3.943 4.01-7.895 8.013-11.848 12.022-4.48 4.495-8.817 9.544-13.798 13.553l-7.926 7.577c-3.866 3.139-7.107 7.07-11.029 10.225-4.177 3.783-8.381 7.562-12.559 11.346-12.595 10.035-24.494 20.434-38.502 29.235-4.793 2.99-9.687 5.852-15.488 7.92-1.726 0.594-4.409 1.885-6.953 1.414-26.148-4.982-47.248-20.158-64.789-34.023-6.22-5.821-12.441-11.658-18.713-17.474-26.865 31.18-53.745 62.366-80.66 93.552-0.072 0.052-0.103 0.118-0.175 0.174 94.771 91.966 189.543 183.988 284.334 275.938a39673.549 39673.549 0 0 1 39.46 38.487c2.929 2.857 5.873 5.698 8.837 8.55 2.596 2.55 5.207 5.059 7.818 7.598 1.762 2.304 3.088 5.335 4.163 8.192 6.538 16.589 4.413 38.963-7.194 48.292-10.608 8.535-28.257 15.54-47.943 10.936-3.85-0.906-7.732-2.017-10.783-3.83-3.082-1.812-5.248-4.863-7.424-7.577-3.937-4.495-7.834-8.975-11.843-13.45-13.45-15.12-26.905-30.229-40.35-45.363-62.09-69.274-124.196-138.573-186.307-207.821-16.809-18.8-33.674-37.55-50.504-56.31a6559.106 6559.106 0 0 0-14.167-15.785c-0.937-1.167-3.814-5.053-5.068-5.524L414.807 886c-9.928 10.383-19.84 20.802-29.737 31.18-2.232 2.304-4.408 4.64-6.62 6.959-4.388 5.468-9.303 9.825-16.466 12.559-16.128 6.251-38.134 1.74-50.975-3.922-3.64-1.587-7.885-3.656-10.26-6.584-8.73-10.957-9.79-34.094-3.902-49.285 3.067-7.91 7.941-13.379 14.009-18.253 2.805-2.632 5.627-5.335 8.448-7.998a82880.082 82880.082 0 0 1 37.263-35.036 93319.486 93319.486 0 0 0 47.022-43.745C459.218 720.45 514.847 669 570.45 617.574c27.531-25.42 55.077-50.82 82.587-76.252v-0.179c-20.634-22.123-41.314-44.232-61.988-66.376-3.59 0.02-6.656 0.512-9.83 1.065-2.858 0.348-5.745 0.681-8.602 1.009-8.366 0.645-16.707 1.275-25.037 1.935-2.663 0.087-5.366 0.19-8.028 0.297-2.233 0.051-4.496 0.103-6.759 0.174h-11.94c-2.58-0.071-5.104-0.123-7.7-0.174-7.598-1.182-15.299-0.696-21.898-2.785-1.936-0.594-3.554-1.935-5.156-2.929-4.982-3.102-9.303-6.779-13.834-10.245-7.7-5.924-14.48-12.749-21.97-18.816-3.031-2.765-6.047-5.59-9.114-8.36-3.533-3.416-7.055-6.846-10.624-10.24-3.922-3.871-7.895-7.737-11.827-11.572-3.261-3.313-6.538-6.605-9.795-9.897-2.37-2.386-4.756-4.761-7.127-7.142a4965.796 4965.796 0 0 0-18.739-19.845c-2.268-2.407-4.567-4.823-6.85-7.23-6.759-7.51-13.553-15.017-20.296-22.543-6.41-7.44-12.856-14.9-19.236-22.354-12.902-16.302-26.127-32.174-38.257-49.372-5.14-7.301-10.383-15.155-13.813-23.972-2.458-6.344-3.19-13.624-4.598-20.926-1.024-5.033-1.132-10.593-1.95-15.959-0.154-2.227-0.298-4.454-0.472-6.686-0.072-3.472-0.153-6.953-0.261-10.42v-9.354c0.123-3.645 0.246-7.3 0.348-10.957 0.123-2.022 0.205-4.029 0.313-6.051 0.803-5.274 0.645-10.834 1.587-15.872 0.594-3.344 0.225-7.194 0.819-10.691 1.567-9.549 3.307-21.483 9.882-25.84 2.59-1.706 7.818-1.06 10.87-0.175 8.463 2.53 15.277 6.83 21.913 11.223 16.22 10.819 29.88 24.336 43.417 37.873 10.19 10.158 20.414 20.316 30.623 30.47C499.113 299.365 601.17 400.357 703.155 501.33h0.154c28.032-28.774 56.028-57.574 84.06-86.354a2599.613 2599.613 0 0 1-17.388-13.174c-9.077-6.81-18.606-15.242-25.661-24.023-5.033-6.323-10.522-12.175-13.711-20.347-1.567-3.922-1.675-8.709-2.437-13.45 0.087-1.9 0.122-3.799 0.189-5.714 1.393-8.448 4.127-14.116 7.04-20.664 1.971-4.024 3.937-8.033 5.873-12.037 2.298-5.177 4.838-10.404 7.925-14.797 5.92-8.356 12.785-15.657 19.057-23.516 6.042-7.506 13.414-13.85 19.446-21.305l6.497-6.758c2.611-2.596 5.222-5.227 7.818-7.823 2.53-2.58 5.07-5.105 7.598-7.67 2.596-2.54 5.172-5.12 7.752-7.665 1.413-1.464 2.857-2.908 4.27-4.372 4.455-4.286 8.92-8.55 13.363-12.836 5.294-5.125 10.573-10.21 15.872-15.314 4.045-3.799 8.064-7.598 12.124-11.418 3.067-2.851 6.093-5.708 9.165-8.55 9.523-8.658 19.057-17.331 28.621-26.01 3.451-3.174 6.933-6.343 10.404-9.513 10.993-8.832 20.818-19.046 31.898-27.801 6.149-4.864 11.637-10.962 18.534-14.971 1.014-0.348 2.007-0.717 3.02-1.06 4.266-0.036 8.48 5.52 9.089 9.165-3.154 4.49-7.772 7.875-11.218 12.104a12761.372 12761.372 0 0 1-26.742 28.242c-2.145 2.211-4.321 4.403-6.482 6.604-21.115 21.863-42.158 43.71-63.257 65.572-6.272 6.446-12.544 12.908-18.816 19.318-7.87 8.12-15.785 16.22-23.69 24.34a24285.952 24285.952 0 0 1-27.982 28.503c-8.171 10.19-14.98 21.464-18.688 36.168-2.334 9.114-1.397 21.197 1.757 28.519 2.764 6.461 7.209 12.298 12.472 16.307a41.318 41.318 0 0 0 13.03 6.686c21.013 6.431 42.875-7.475 54.339-15.938 6.533-4.828 12.022-10.89 17.7-16.568 6.2-6.011 12.35-12.073 18.555-18.1l10.224-10.209c30.055-29.512 60.053-59.06 90.066-88.591 12.165-11.848 24.305-23.711 36.465-35.523 3.348-3.277 6.707-6.533 10.056-9.825 1.341-1.326 2.995-3.692 5.084-4.183 3.522-0.85 7.736 6.17 8.627 8.642-12.718 13.952-25.416 27.91-38.139 41.867a466462.923 466462.923 0 0 0-97.004 106.286c-8.381 9.093-16.742 18.176-25.154 27.264-5.837 7.28-13.138 13.363-18.8 20.838-3.656 4.926-6.462 10.26-8.884 16.481-2.32 5.904-4.337 15.12-2.754 23.276 0.614 3.118 1.167 6.113 2.232 8.811 2.386 6.155 5.75 10.962 9.508 15.683 2.841 3.502 7.439 6.912 11.776 8.796a50.468 50.468 0 0 0 9.257 3.052c6.604 1.464 15.001 0.486 20.572-1.152 13.834-4.112 23.762-10.906 33.587-18.775 60.928-59.884 121.846-119.778 182.753-179.636 7.179-0.02 15.14 5.49 18.258 9.616-5.447 6.487-10.829 13.005-16.23 19.481z" /></svg>